:SAMPLES-PER-SECOND 30
:FULLY-SPECIFIED
:DEGREES
419
root  -16.5355 39.1076 4.24793 49.1584 -86.1591 -49.9258
RightUpLeg  -22.9542 -17.21 -7.70778
RightLeg  44.1288 0.41143 0.174827
RightFoot  14.1826 -5.83495 25.6942
RightToes  6.35927e-011 1.30204e-014 -6.03759e-014
Spine  22.177 2.02784 -8.5352
Spine1  -4.22908 -1.04052 11.4703
HEad  -22.7856 5.6396 -3.03676
LeftShoulder1  1.60469 -3.07842 -17.7591
LeftArm  -7.74179 25.8049 -40.6395
LeftForeArm  169.093 -74.5929 -145.033
LeftHand  -0.155586 4.85969 28.643
RightShoulder  0.886217 0.235342 17.1696
RightArm  -20.6672 -32.8166 35.2556
RightForeArm  168.965 67.0797 156.785
RightHand  0.110468 -6.93344 -10.6963
LeftUpLeg  -16.153 -1.84289 11.133
LeftLeg  42.4024 -2.72608 -2.20166
LeftFoot  -4.00197 1.6045 -24.2372
LeftToes  7.40077e-010 7.2695e-011 -6.03601e-011
420
root  -16.6254 38.6177 3.6744 84.9071 -85.6977 -86.2491
RightUpLeg  -19.5438 -5.62297 -2.99671
RightLeg  41.6581 -6.43206 -6.33818
RightFoot  4.81482 -3.1056 21.786
RightToes  6.35927e-011 1.30204e-014 -6.03759e-014
Spine  20.7519 2.56455 -7.23124
Spine1  -1.72405 -0.301849 10.3993
HEad  -23.1812 5.96017 -2.96147
LeftShoulder1  1.49859 -2.68406 -17.5867
LeftArm  -6.84034 25.1973 -44.4963
LeftForeArm  150.823 -78.3598 -129.063
LeftHand  -0.0349032 5.15733 16.512
RightShoulder  0.906387 0.247857 17.6689
RightArm  -20.2518 -33.5754 37.4475
RightForeArm  173.975 66.6254 157.832
RightHand  0.0919203 -8.49774 -4.63336
LeftUpLeg  -14.5905 -11.152 8.22778
LeftLeg  45.7469 9.46125 10.8386
LeftFoot  -7.23133 0.85524 -22.4439
LeftToes  7.40077e-010 7.2695e-011 -6.03601e-011
421
root  -16.69 37.837 3.1053 87.49 -84.5275 -88.6956
RightUpLeg  -17.4017 3.63412 1.12843
RightLeg  41.4721 -15.6326 -14.6359
RightFoot  -7.20564 -0.734229 19.1354
RightToes  6.35927e-011 1.30204e-014 -6.03759e-014
Spine  20.4028 2.34996 -6.58638
Spine1  -1.51893 -0.415248 10.2596
HEad  -23.158 6.53968 -2.93379
LeftShoulder1  1.39832 -2.16988 -18.0474
LeftArm  -4.94621 25.5718 -46.3184
LeftForeArm  125.012 -80.313 -107.397
LeftHand  0.0637627 6.05759 12.8717
RightShoulder  0.9372 0.26167 18.4665
RightArm  -19.3149 -34.5006 38.9537
RightForeArm  176.35 66.15 158.564
RightHand  0.0185282 -9.01361 -1.97639
LeftUpLeg  -15.9431 -19.1499 6.72376
LeftLeg  53.415 21.0852 27.9481
LeftFoot  -8.47815 0.597026 -21.7251
LeftToes  7.40077e-010 7.2695e-011 -6.03601e-011
422
root  -16.5394 37.0654 2.6178 69.5493 -83.4816 -70.2601
RightUpLeg  -17.7979 3.51682 3.19235
RightLeg  43.2592 -18.0731 -17.6051
RightFoot  -14.2493 0.354661 17.3898
RightToes  6.35927e-011 1.30204e-014 -6.03759e-014
Spine  21.7533 1.31007 -5.68661
Spine1  -2.45601 -1.35715 10.7269
HEad  -24.4116 6.78093 -2.92971
LeftShoulder1  1.30927 -1.6967 -18.6067
LeftArm  -3.38516 26.4461 -46.6255
LeftForeArm  112.331 -80.593 -96.4865
LeftHand  0.0841136 6.15325 15.4665
RightShoulder  0.932396 0.172218 18.9852
RightArm  -19.1818 -35.2149 40.1047
RightForeArm  177.482 65.0722 159.673
RightHand  0.0312259 -8.98289 -2.4852
LeftUpLeg  -20.9522 -18.6396 8.77254
LeftLeg  59.7828 18.713 30.9487
LeftFoot  -7.84695 0.760152 -23.0638
LeftToes  7.40077e-010 7.2695e-011 -6.03601e-011
423
root  -16.236 36.5831 2.32925 59.0381 -82.7475 -59.7299
RightUpLeg  -19.9718 -4.80377 2.98767
RightLeg  45.5121 -12.224 -13.2079
RightFoot  -15.679 0.50221 15.9183
RightToes  6.35927e-011 1.30204e-014 -6.03759e-014
Spine  23.599 0.477589 -3.76756
Spine1  -2.3989 -1.81939 10.2325
HEad  -27.1546 6.27629 -2.76313
LeftShoulder1  1.29132 -1.62131 -18.6341
LeftArm  -3.31348 27.1835 -46.7145
LeftForeArm  116.602 -80.5124 -100.253
LeftHand  0.0455883 5.74239 17.9735
RightShoulder  0.870291 -0.0432279 18.7559
RightArm  -19.8942 -35.2757 40.5042
RightForeArm  179.627 63.1233 161.493
RightHand  0.0923116 -9.09813 -4.22637
LeftUpLeg  -26.4206 -8.61895 12.3715
LeftLeg  62.7321 9.15058 19.0348
LeftFoot  -5.72529 1.33184 -25.9075
LeftToes  7.40077e-010 7.2695e-011 -6.03601e-011
424
root  -16.0037 36.2706 2.2811 66.6571 -84.1156 -67.871
RightUpLeg  -23.2862 -14.2378 1.08121
RightLeg  50.109 -4.75576 -6.42812
RightFoot  -13.6608 0.187857 13.6295
RightToes  6.35927e-011 1.30204e-014 -6.03759e-014
Spine  24.6691 0.59747 -2.02469
Spine1  -1.53769 -1.04688 7.99813
HEad  -29.1983 5.66605 -2.53855
LeftShoulder1  1.32014 -1.84374 -18.0853
LeftArm  -4.11496 28.2786 -46.8735
LeftForeArm  124.565 -80.1849 -108.232
LeftHand  0.0750262 5.91163 18.7432
RightShoulder  0.814706 -0.178477 18.0631
RightArm  -20.1598 -35.1272 39.1109
RightForeArm  -177.852 60.9538 163.287
RightHand  0.166351 -9.44331 -5.95519
LeftUpLeg  -29.7286 6.68748 14.9652
LeftLeg  66.5133 1.66075 5.02904
LeftFoot  -1.89146 2.3821 -28.1988
LeftToes  7.40077e-010 7.2695e-011 -6.03601e-011
425
root  -15.9347 36.0789 2.38862 102.885 -86.6657 -104.725
RightUpLeg  -26.8822 -21.5605 -2.05098
RightLeg  55.7901 0.226022 -0.0927104
RightFoot  -10.022 -0.178741 10.1225
RightToes  6.35927e-011 1.30204e-014 -6.03759e-014
Spine  24.9563 1.21655 -1.7042
Spine1  -1.21403 0.163208 5.08036
HEad  -29.0765 5.67966 -2.75323
LeftShoulder1  1.30254 -1.88097 -17.5445
LeftArm  -4.67097 30.2478 -46.5568
LeftForeArm  128.986 -79.9065 -112.663
LeftHand  0.157826 6.36914 19.8001
RightShoulder  0.814849 -0.111542 17.5334
RightArm  -19.2848 -35.0406 36.2293
RightForeArm  -176.482 59.5394 164.306
RightHand  0.235952 -9.79154 -7.28667
LeftUpLeg  -30.72 23.0451 16.0891
LeftLeg  69.9117 -2.06997 -5.35694
LeftFoot  0.78785 3.15148 -29.1511
LeftToes  7.40077e-010 7.2695e-011 -6.03601e-011
426
root  -15.9941 36.1009 2.63938 171.996 -87.6231 -174.531
RightUpLeg  -29.4106 -29.4669 -6.62862
RightLeg  60.3775 4.20798 7.46122
RightFoot  -3.63172 -0.51898 7.30303
RightToes  6.35927e-011 1.30204e-014 -6.03759e-014
Spine  24.7196 1.37417 -2.20446
Spine1  -1.11023 0.644691 2.71312
HEad  -27.7649 5.99037 -3.57915
LeftShoulder1  1.23932 -1.63267 -17.481
LeftArm  -5.02583 32.3475 -45.93
LeftForeArm  130.859 -80.0136 -112.521
LeftHand  0.171253 6.37359 21.0854
RightShoulder  0.827751 -0.0216848 17.2552
RightArm  -18.1612 -34.742 34.3219
RightForeArm  -175.066 59.1409 164.661
RightHand  0.299931 -10.4268 -7.87129
LeftUpLeg  -30.4464 37.7337 16.1389
LeftLeg  71.9313 -3.31971 -10.357
LeftFoot  2.66312 3.68061 -29.4866
LeftToes  7.40077e-010 7.2695e-011 -6.03601e-011
427
root  -16.1434 36.2734 3.05987 -133.805 -87.2158 130.357
RightUpLeg  -29.6884 -39.4828 -12.4544
RightLeg  63.4635 8.05456 16.502
RightFoot  5.81867 -0.956148 6.53065
RightToes  6.35927e-011 1.30204e-014 -6.03759e-014
Spine  23.9442 0.781948 -1.9283
Spine1  -0.405915 0.354303 1.198
HEad  -26.3086 5.74969 -4.531
LeftShoulder1  1.2281 -1.51831 -17.8291
LeftArm  -5.6282 33.5349 -45.9961
LeftForeArm  128.327 -80.4494 -107.326
LeftHand  0.246336 6.66833 22.6005
RightShoulder  0.823002 -0.0216987 17.1075
RightArm  -17.7371 -34.5515 35.3003
RightForeArm  -171.638 59.3215 164.84
RightHand  0.361071 -11.6336 -7.58662
LeftUpLeg  -29.7227 49.6591 16.224
LeftLeg  72.6166 -2.35203 -7.45062
LeftFoot  5.02066 4.41439 -30.2575
LeftToes  7.40077e-010 7.2695e-011 -6.03601e-011
428
root  -16.3655 36.3423 3.52794 -93.661 -87.0758 89.423
RightUpLeg  -27.1261 -47.8997 -18.1168
RightLeg  65.0359 11.1115 23.8867
RightFoot  11.2617 -1.32454 6.97925
RightToes  6.35927e-011 1.30204e-014 -6.03759e-014
Spine  22.883 0.0329941 -0.519458
Spine1  -0.245712 -0.015635 0.545615
HEad  -24.2355 4.72831 -5.12643
LeftShoulder1  1.34376 -1.87053 -18.4206
LeftArm  -6.17985 33.9138 -47.2129
LeftForeArm  118.096 -80.8123 -96.9241
LeftHand  0.66955 8.2297 26.7825
RightShoulder  0.846028 0.0269648 17.4582
RightArm  -17.2433 -35.0343 38.3033
RightForeArm  -167.188 59.8297 164.904
RightHand  0.37685 -12.8433 -6.70353
LeftUpLeg  -29.0274 57.3079 17.1543
LeftLeg  72.0697 -0.0448126 0.73018
LeftFoot  7.28596 5.12752 -30.8526
LeftToes  7.40077e-010 7.2695e-011 -6.03601e-011
429
root  -16.5244 36.3418 3.86118 -60.2883 -86.5071 56.0966
RightUpLeg  -23.4208 -48.4259 -20.7874
RightLeg  63.605 12.4788 25.091
RightFoot  5.84681 -1.28329 8.93876
RightToes  6.35927e-011 1.30204e-014 -6.03759e-014
Spine  22.1895 -0.302887 0.637229
Spine1  -1.8926 -0.186198 0.757657
HEad  -21.7195 3.33971 -5.50862
LeftShoulder1  1.53315 -2.44325 -19.2648
LeftArm  -6.29574 33.9931 -49.0897
LeftForeArm  104.888 -80.7645 -85.729
LeftHand  1.16113 9.60562 31.1646
RightShoulder  0.914107 0.164573 18.4998
RightArm  -15.2114 -35.7143 41.5654
RightForeArm  -163.579 60.815 164.594
RightHand  0.277868 -13.1787 -5.02798
LeftUpLeg  -29.1764 57.9042 17.0561
LeftLeg  69.1548 2.13867 7.04061
LeftFoot  10.8219 5.89288 -29.8578
LeftToes  7.40077e-010 7.2695e-011 -6.03601e-011
430
root  -16.4825 36.3881 4.00803 -44.9573 -84.7643 41.5692
RightUpLeg  -21.8441 -37.8518 -19.1667
RightLeg  58.6232 9.44196 15.9863
RightFoot  -5.29195 -0.743807 13.8094
RightToes  6.35927e-011 1.30204e-014 -6.03759e-014
Spine  22.0868 -0.208154 -0.363859
Spine1  -3.60828 -0.387065 1.09352
HEad  -20.7414 1.86045 -6.0375
LeftShoulder1  1.66593 -2.73192 -20.2786
LeftArm  -5.60386 33.1485 -50.8754
LeftForeArm  97.8301 -80.5994 -79.4688
LeftHand  0.733493 8.54869 26.5297
RightShoulder  0.960531 0.231371 19.3672
RightArm  -11.3398 -35.2243 44.7739
RightForeArm  -159.666 62.2477 163.981
RightHand  0.0365562 -12.2079 -1.67757
LeftUpLeg  -29.3867 49.7859 14.1752
LeftLeg  63.8622 3.86465 9.23262
LeftFoot  13.8368 6.27516 -27.9369
LeftToes  7.40077e-010 7.2695e-011 -6.03601e-011
431
root  -16.3405 36.2858 4.17632 -42.9674 -82.1094 39.7236
RightUpLeg  -21.7141 -19.1737 -17.0911
RightLeg  55.4975 -0.215522 -0.945038
RightFoot  -11.4904 -0.0892269 20.2899
RightToes  6.35927e-011 1.30204e-014 -6.03759e-014
Spine  22.2397 -0.0607339 -3.08979
Spine1  -2.66089 -0.836543 1.00187
HEad  -22.3027 0.212444 -6.45997
LeftShoulder1  1.68377 -2.66901 -20.8713
LeftArm  -2.98264 30.5066 -52.1271
LeftForeArm  101.385 -80.7345 -81.4295
LeftHand  -0.000500511 5.7147 10.8633
RightShoulder  0.938473 0.190168 19.0276
RightArm  -6.78354 -33.238 48.0689
RightForeArm  -154.253 63.505 163.551
RightHand  -0.199734 -9.71779 4.10243
LeftUpLeg  -27.5905 34.3775 10.2503
LeftLeg  59.5148 5.92639 11.2904
LeftFoot  10.1999 5.28325 -27.674
LeftToes  7.40077e-010 7.2695e-011 -6.03601e-011
432
root  -16.2317 35.9724 4.531 -42.5128 -79.5032 37.663
RightUpLeg  -20.8614 0.908846 -15.2557
RightLeg  58.7619 -11.2818 -19.8086
RightFoot  -10.748 -0.187568 23.0347
RightToes  6.35927e-011 1.30204e-014 -6.03759e-014
Spine  22.6339 -0.0436138 -5.2672
Spine1  0.305565 -1.39572 0.982672
HEad  -24.4639 -1.60272 -6.05072
LeftShoulder1  1.63329 -2.62413 -20.2079
LeftArm  1.6894 27.1934 -52.6924
LeftForeArm  122.95 -80.7625 -100.325
LeftHand  0.43395 1.26829 -10.9045
RightShoulder  0.883346 0.139147 17.771
RightArm  -3.5735 -31.606 50.1468
RightForeArm  -151.141 63.4011 163.854
RightHand  -0.149241 -6.28321 13.1747
LeftUpLeg  -24.3908 16.1474 6.49197
LeftLeg  58.7112 9.51808 16.9856
LeftFoot  2.0349 3.62925 -30.5179
LeftToes  7.40077e-010 7.2695e-011 -6.03601e-011
433
root  -16.1964 35.5607 4.95191 -41.0819 -77.8935 33.9775
RightUpLeg  -18.6053 16.7254 -11.5042
RightLeg  65.0311 -18.7612 -37.4417
RightFoot  -8.55645 -0.516353 18.6574
RightToes  6.35927e-011 1.30204e-014 -6.03759e-014
Spine  23.2704 0.0309154 -6.11221
Spine1  2.33203 -1.63112 1.24305
HEad  -25.0363 -3.26909 -4.60628
LeftShoulder1  1.55868 -2.74962 -18.3515
LeftArm  5.50609 25.6028 -52.1367
LeftForeArm  156.19 -77.4113 -133.815
LeftHand  2.28962 -3.17029 -30.8486
RightShoulder  0.835707 0.050393 16.9714
RightArm  -3.29463 -32.2572 49.1013
RightForeArm  -155.498 61.3173 164.894
RightHand  -0.0508114 -5.1899 24.3271
LeftUpLeg  -21.5666 0.886829 3.60796
LeftLeg  60.3665 11.8068 21.8348
LeftFoot  -4.16572 2.25196 -34.4462
LeftToes  7.40077e-010 7.2695e-011 -6.03601e-011
